<svg xmlns="http://www.w3.org/2000/svg" width="12" height="10.5" viewBox="0 0 12 10.5">
  <path id="Path_395" data-name="Path 395" d="M.75,0V-6.75h10.5V0a.721.721,0,0,1-.223.527A.721.721,0,0,1,10.5.75h-9A.721.721,0,0,1,.973.527.721.721,0,0,1,.75,0ZM4.5-4.969v.187a.271.271,0,0,0,.082.2.271.271,0,0,0,.2.082H7.219a.271.271,0,0,0,.2-.082.271.271,0,0,0,.082-.2v-.187a.271.271,0,0,0-.082-.2.271.271,0,0,0-.2-.082H4.781a.271.271,0,0,0-.2.082A.271.271,0,0,0,4.5-4.969ZM11.25-9.75a.721.721,0,0,1,.527.223A.721.721,0,0,1,12-9v1.125a.365.365,0,0,1-.105.27.365.365,0,0,1-.27.105H.375a.365.365,0,0,1-.27-.105A.365.365,0,0,1,0-7.875V-9a.721.721,0,0,1,.223-.527A.721.721,0,0,1,.75-9.75Z" transform="translate(0 9.75)" fill="#d7d7d7"/>
</svg>
