<svg xmlns="http://www.w3.org/2000/svg" width="10.5" height="12" viewBox="0 0 10.5 12">
  <path id="Path_447" data-name="Path 447" d="M0-8.531a.271.271,0,0,0,.082.2.271.271,0,0,0,.2.082h9.937a.271.271,0,0,0,.2-.082.271.271,0,0,0,.082-.2v-.656a.542.542,0,0,0-.164-.4.542.542,0,0,0-.4-.164H7.312L7.1-10.2a.526.526,0,0,0-.211-.223.594.594,0,0,0-.3-.082H3.914a.594.594,0,0,0-.3.082A.526.526,0,0,0,3.4-10.2l-.211.445H.562a.542.542,0,0,0-.4.164.542.542,0,0,0-.164.4ZM9.727-7.2a.312.312,0,0,0-.082-.211.255.255,0,0,0-.2-.094H1.055a.255.255,0,0,0-.2.094A.312.312,0,0,0,.773-7.2L1.242.445a1.064,1.064,0,0,0,.352.75,1.1,1.1,0,0,0,.773.3H8.133a1.1,1.1,0,0,0,.773-.3,1.064,1.064,0,0,0,.352-.75Z" transform="translate(0 10.5)" fill="#f03"/>
</svg>
