<svg xmlns="http://www.w3.org/2000/svg" width="14" height="14" viewBox="0 0 14 14">
  <path id="Path_439" data-name="Path 439" d="M4.867-8.75H.9v-2.379A3.5,3.5,0,0,0,.7-12.551a.772.772,0,0,0-.725-.574,1.2,1.2,0,0,0-.779.232.749.749,0,0,0-.314.479v.219a5.184,5.184,0,0,1-.437,1.709,4.383,4.383,0,0,1-.807,1.244,6.142,6.142,0,0,1-.93.793A4.863,4.863,0,0,1-4.061-8a2.349,2.349,0,0,1-.314.123v7l.41.055a4.68,4.68,0,0,1,1.436.178A2.63,2.63,0,0,1-1.7-.219,6.592,6.592,0,0,0-1,.273,4.185,4.185,0,0,0,.342.7,13.674,13.674,0,0,0,2.789.875,5.011,5.011,0,0,0,4.32.656,3.781,3.781,0,0,0,5.441.109,2.7,2.7,0,0,0,6.18-.766a6.875,6.875,0,0,0,.465-1.012,5.489,5.489,0,0,0,.246-1.176q.082-.711.1-1.162T7-5.25a4.433,4.433,0,0,0-.643-2.611A1.832,1.832,0,0,0,4.867-8.75ZM-6.754-.246A.913.913,0,0,0-6.125,0,.841.841,0,0,0-5.51-.26a.841.841,0,0,0,.26-.615V-7.848a.841.841,0,0,0-.26-.615.841.841,0,0,0-.615-.26.841.841,0,0,0-.615.26A.841.841,0,0,0-7-7.848V-.875A.913.913,0,0,0-6.754-.246Z" transform="translate(7 13.125)" fill="#d7d7d7"/>
</svg>
