<svg xmlns="http://www.w3.org/2000/svg" width="37.883" height="34.449" viewBox="0 0 37.883 34.449">
  <g id="adwoy" transform="translate(-0.022 -0.018)">
    <path id="Path_381" data-name="Path 381" d="M37.669,9.081h0a11.9,11.9,0,0,0-4.914-7.04C27.983-1.219,21.982-.321,17.683,3.175,11.3,8.372,5.54,16.357,5.54,16.357L.957,22.122a1.85,1.85,0,0,0-.378.472,2.888,2.888,0,0,0,.661,4.063A2.888,2.888,0,0,0,5.3,26a4.155,4.155,0,0,0,.283-.472l6.142-9.4a1.537,1.537,0,0,1,2.221-.283,1.556,1.556,0,0,1,.378,2.079l-3.591,3.922a2.9,2.9,0,1,0,3.5,4.63A2.991,2.991,0,0,0,15.273,25l1.465-2.788a1.67,1.67,0,0,1,2.362-.331,1.643,1.643,0,0,1,.378,2.268L15.462,29.3a2.919,2.919,0,1,0,3.733,4.489,3.019,3.019,0,0,0,.614-.709h0l4.867-8.127a1.537,1.537,0,0,1,2.221-.283,1.556,1.556,0,0,1,.378,2.079l-2.032,2.315a2.911,2.911,0,1,0,3.4,4.725,2.186,2.186,0,0,0,.85-.992h.047C29.495,32.8,39.559,19.24,37.669,9.081Z" transform="translate(0 0)" fill="#3582ff"/>
    <path id="Path_382" data-name="Path 382" d="M56.595,19.226A3.9,3.9,0,1,1,52.626,15.4a3.9,3.9,0,0,1,3.969,3.827Z" transform="translate(-25.73 -8.113)" fill="#fff"/>
    <path id="Path_383" data-name="Path 383" d="M54.726,19.339a1.124,1.124,0,0,1-1.039,1.087A1.089,1.089,0,0,1,52.6,19.387h0a.95.95,0,0,1,.189-.614,1.056,1.056,0,0,1,.85-.472,1.031,1.031,0,0,1,1.087,1.039Z" transform="translate(-27.735 -9.644)" fill="#3582ff"/>
  </g>
</svg>
