<svg id="Notifications_icon_ON" data-name="Notifications icon ON" xmlns="http://www.w3.org/2000/svg" width="23.494" height="23.49" viewBox="0 0 23.494 23.49">
  <g id="Icon_material-notifications" data-name="Icon material-notifications" transform="translate(0 0.856)">
    <g id="Icon_material-notifications-2" data-name="Icon material-notifications" transform="translate(-6 -3.75)" fill="none">
      <path d="M15.286,26.384a2.328,2.328,0,0,0,2.321-2.321H12.964A2.321,2.321,0,0,0,15.286,26.384ZM22.25,19.42v-5.8c0-3.563-1.9-6.546-5.223-7.336V5.491a1.741,1.741,0,0,0-3.482,0V6.28c-3.331.789-5.223,3.761-5.223,7.336v5.8L6,21.741V22.9H24.571V21.741Z" stroke="none"/>
      <path d="M 20.90371322631836 20.90178298950195 L 20.25000381469727 20.2480640411377 L 20.25000381469727 13.61607360839844 C 20.25000381469727 12.23849296569824 19.89992332458496 11.00347328186035 19.23761367797852 10.04451274871826 C 18.58906364440918 9.105493545532227 17.68958282470703 8.493693351745605 16.56415367126465 8.226113319396973 L 15.28793716430664 7.922676086425781 L 14.0057430267334 8.226472854614258 C 12.87587356567383 8.494183540344238 11.9755334854126 9.104263305664062 11.32973289489746 10.03977298736572 C 10.67010307312012 10.99533367156982 10.32143306732178 12.2320032119751 10.32143306732178 13.61607360839844 L 10.32143306732178 20.24807357788086 L 9.667713165283203 20.90178298950195 L 20.90371322631836 20.90178298950195 M 15.28571319580078 26.3839225769043 C 13.99732303619385 26.3839225769043 12.96428298950195 25.33928298950195 12.96428298950195 24.06250381469727 L 17.60714340209961 24.06250381469727 C 17.60714340209961 25.33928298950195 16.56249237060547 26.3839225769043 15.28571319580078 26.3839225769043 Z M 24.5714225769043 22.90178298950195 L 6.000003337860107 22.90178298950195 L 6.000003337860107 21.74107360839844 L 8.321433067321777 19.41964340209961 L 8.321433067321777 13.61607360839844 C 8.321433067321777 10.04107284545898 10.21339321136475 7.069643020629883 13.54464340209961 6.28035306930542 L 13.54464340209961 5.491073131561279 C 13.54464340209961 4.527683258056641 14.32232284545898 3.750003099441528 15.28571319580078 3.750003099441528 C 16.24910354614258 3.750003099441528 17.02678298950195 4.527683258056641 17.02678298950195 5.491073131561279 L 17.02678298950195 6.28035306930542 C 20.3464241027832 7.069643020629883 22.25000381469727 10.05268287658691 22.25000381469727 13.61607360839844 L 22.25000381469727 19.41964340209961 L 24.5714225769043 21.74107360839844 L 24.5714225769043 22.90178298950195 Z" stroke="none" fill="#a4afb7"/>
    </g>
  </g>
  <g id="Notification_indicator" data-name="Notification indicator" transform="translate(9.494)">
    <g id="Ellipse_28" data-name="Ellipse 28" fill="#f03" stroke="#fff" stroke-width="2">
      <circle cx="7" cy="7" r="7" stroke="none"/>
      <circle cx="7" cy="7" r="6" fill="none"/>
    </g>
  </g>
</svg>
