<svg id="Notification_icon" data-name="Notification icon" xmlns="http://www.w3.org/2000/svg" width="27" height="28" viewBox="0 0 27 28">
  <rect id="Rectangle_761" data-name="Rectangle 761" width="27" height="28" fill="#fff"/>
  <path id="Notification_Icon-2" data-name="Notification Icon" d="M6,14h4a2,2,0,0,1-4,0ZM1,13a1,1,0,0,1,0-2h.5A4.354,4.354,0,0,0,3,8V5A4.952,4.952,0,0,1,8,0a4.951,4.951,0,0,1,5,5V8a4.351,4.351,0,0,0,1.5,3H15a1,1,0,0,1,0,2Z" transform="translate(6 7)" fill="#bcbccb"/>
  <g id="Notification_Badge" data-name="Notification Badge" transform="translate(17 2)" fill="#ffc06a" stroke="#fff" stroke-width="2">
    <circle cx="4" cy="4" r="4" stroke="none"/>
    <circle cx="4" cy="4" r="5" fill="none"/>
  </g>
</svg>
