<svg width="100" height="100" viewBox="0 0 100 100" fill="none" xmlns="http://www.w3.org/2000/svg">
<g clip-path="url(#clip0_1442_47)">
<rect width="100" height="100" fill="white"/>
<path d="M50 100C77.6142 100 100 77.6142 100 50C100 22.3858 77.6142 0 50 0C22.3858 0 0 22.3858 0 50C0 77.6142 22.3858 100 50 100Z" fill="#43425D"/>
<path d="M21.85 67V34.4H31.05C34.3833 34.4 37.2667 34.9667 39.7 36.1C42.1333 37.2333 44.0167 39 45.35 41.4C46.7167 43.7667 47.4 46.8167 47.4 50.55C47.4 54.2833 46.7333 57.3667 45.4 59.8C44.0667 62.2333 42.2 64.05 39.8 65.25C37.4333 66.4167 34.65 67 31.45 67H21.85ZM29.2 61.05H30.6C32.4667 61.05 34.0833 60.7167 35.45 60.05C36.85 59.3833 37.9333 58.2833 38.7 56.75C39.4667 55.2167 39.85 53.15 39.85 50.55C39.85 47.95 39.4667 45.9167 38.7 44.45C37.9333 42.95 36.85 41.9 35.45 41.3C34.0833 40.6667 32.4667 40.35 30.6 40.35H29.2V61.05ZM67.9883 67.6C65.0216 67.6 62.3216 66.9667 59.8883 65.7C57.4883 64.4333 55.5716 62.5667 54.1383 60.1C52.7383 57.6 52.0383 54.5333 52.0383 50.9C52.0383 47.3 52.7549 44.2333 54.1883 41.7C55.6549 39.1333 57.5883 37.1833 59.9883 35.85C62.3883 34.4833 65.0383 33.8 67.9383 33.8C70.3049 33.8 72.3383 34.2333 74.0383 35.1C75.7383 35.9667 77.1216 36.95 78.1883 38.05L74.3383 42.75C73.5049 42.0167 72.6216 41.4 71.6883 40.9C70.7549 40.4 69.5883 40.15 68.1883 40.15C65.6549 40.15 63.5883 41.0833 61.9883 42.95C60.3883 44.8167 59.5883 47.3833 59.5883 50.65C59.5883 53.9833 60.3549 56.5833 61.8883 58.45C63.4216 60.3167 65.7049 61.25 68.7383 61.25C69.4049 61.25 70.0549 61.1667 70.6883 61C71.3216 60.8333 71.8383 60.5833 72.2383 60.25V54.65H66.8383V48.65H78.7383V63.65C77.6049 64.75 76.0883 65.6833 74.1883 66.45C72.3216 67.2167 70.2549 67.6 67.9883 67.6Z" fill="white"/>
</g>
<defs>
<clipPath id="clip0_1442_47">
<rect width="100" height="100" fill="white"/>
</clipPath>
</defs>
</svg>
