<svg xmlns="http://www.w3.org/2000/svg" xmlns:xlink="http://www.w3.org/1999/xlink" width="13" height="12.822" viewBox="0 0 13 12.822">
  <defs>
    <clipPath id="clip-path">
      <rect width="13" height="12.822" fill="none"/>
    </clipPath>
  </defs>
  <g id="refresh-icon" clip-path="url(#clip-path)">
    <path id="Path_392" data-name="Path 392" d="M12.746-11.934a.737.737,0,0,0-.571-.254.8.8,0,0,0-.584.241.781.781,0,0,0-.241.571v1.93Q11.3-9.5,11.07-9.788t-.3-.381q-.076-.089-.317-.355a3.932,3.932,0,0,0-.381-.381q-.14-.114-.419-.33a2.773,2.773,0,0,0-.5-.317l-.546-.254a2.908,2.908,0,0,0-.647-.216q-.317-.063-.711-.114a6.449,6.449,0,0,0-.825-.051,6.191,6.191,0,0,0-4.545,1.879A6.176,6.176,0,0,0,0-5.776,6.176,6.176,0,0,0,1.879-1.244,6.191,6.191,0,0,0,6.424.635,6.235,6.235,0,0,0,10.182-.584a6.339,6.339,0,0,0,2.336-3.2.827.827,0,0,0-.051-.635.817.817,0,0,0-.482-.419.79.79,0,0,0-.647.051.809.809,0,0,0-.419.5A4.651,4.651,0,0,1,9.191-1.942a4.607,4.607,0,0,1-2.768.9A4.58,4.58,0,0,1,3.06-2.425,4.565,4.565,0,0,1,1.676-5.776,4.565,4.565,0,0,1,3.06-9.128a4.58,4.58,0,0,1,3.364-1.384,3.4,3.4,0,0,1,2.095.635A7.426,7.426,0,0,1,10.131-8.15H8.049a.781.781,0,0,0-.571.241.8.8,0,0,0-.241.584.8.8,0,0,0,.241.584.781.781,0,0,0,.571.241h4.139a.781.781,0,0,0,.571-.241A.781.781,0,0,0,13-7.312v-4.062A.723.723,0,0,0,12.746-11.934Z" transform="translate(0 12.188)" fill="#d7d7d7"/>
  </g>
</svg>
