<svg xmlns="http://www.w3.org/2000/svg" xmlns:xlink="http://www.w3.org/1999/xlink" width="13" height="12.924" viewBox="0 0 13 12.924">
  <defs>
    <clipPath id="clip-path">
      <rect width="13" height="12.924" fill="none"/>
    </clipPath>
  </defs>
  <g id="share-icon" clip-path="url(#clip-path)">
    <path id="Path_393" data-name="Path 393" d="M9.572-8.354a2.128,2.128,0,0,0,1.295.432,2.057,2.057,0,0,0,1.511-.622A2.057,2.057,0,0,0,13-10.055a2.057,2.057,0,0,0-.622-1.511,2.057,2.057,0,0,0-1.511-.622,2.057,2.057,0,0,0-1.511.622,2.057,2.057,0,0,0-.622,1.511L3.453-7.516a2.086,2.086,0,0,0-1.32-.457,2.057,2.057,0,0,0-1.511.622A2.057,2.057,0,0,0,0-5.84,2.057,2.057,0,0,0,.622-4.329a2.057,2.057,0,0,0,1.511.622A2.176,2.176,0,0,0,3.3-4.037L8.734-1.422A2.1,2.1,0,0,0,9.356.1a2.036,2.036,0,0,0,1.511.635A2.036,2.036,0,0,0,12.378.1,2.084,2.084,0,0,0,13-1.409a2.084,2.084,0,0,0-.622-1.511,2.036,2.036,0,0,0-1.511-.635,2.128,2.128,0,0,0-1.295.432L4.266-5.687v-.1Z" transform="translate(0 12.188)" fill="#d7d7d7"/>
  </g>
</svg>
