<svg xmlns="http://www.w3.org/2000/svg" xmlns:xlink="http://www.w3.org/1999/xlink" width="12.5" height="12.49" viewBox="0 0 12.5 12.49">
  <defs>
    <clipPath id="clip-path">
      <rect width="12.5" height="12.49" fill="none"/>
    </clipPath>
  </defs>
  <g id="version-timer-icon" clip-path="url(#clip-path)">
    <path id="Path_387" data-name="Path 387" d="M6.25,12.49a6,6,0,0,1-4.415-1.835A6.053,6.053,0,0,1,0,6.25,6.019,6.019,0,0,1,1.835,1.835,6.06,6.06,0,0,1,6.25,0a6,6,0,0,1,4.415,1.835A6.06,6.06,0,0,1,12.5,6.25a6,6,0,0,1-1.835,4.415A6.067,6.067,0,0,1,6.25,12.49Zm0-10.831A4.372,4.372,0,0,0,3.006,3,4.366,4.366,0,0,0,1.658,6.25,4.372,4.372,0,0,0,3,9.494,4.389,4.389,0,0,0,6.24,10.831,4.389,4.389,0,0,0,9.484,9.494,4.389,4.389,0,0,0,10.821,6.25,4.389,4.389,0,0,0,9.484,3.006,4.32,4.32,0,0,0,6.25,1.658Zm-.031,5.39a.822.822,0,0,1-.591-.238.8.8,0,0,1-.238-.591V3.109a.829.829,0,1,1,1.658,0V5.39h1.5a.836.836,0,0,1,.591,1.42.8.8,0,0,1-.591.238Z" fill="#d7d7d7"/>
  </g>
</svg>
