<svg xmlns="http://www.w3.org/2000/svg" width="36" height="36" viewBox="0 0 36 36">
  <g id="Group_122" data-name="Group 122" transform="translate(-62 -248)">
    <g id="avatar" transform="translate(62 248)" fill="#d7d7d7">
      <path d="M 18 35.5 C 15.97774982452393 35.5 13.99825000762939 35.15436935424805 12.11649036407471 34.47270965576172 C 10.27157974243164 33.80440139770508 8.511560440063477 32.81026840209961 6.88532018661499 31.51791954040527 C 2.886859893798828 28.3482494354248 0.5 23.29496002197266 0.5 18 C 0.5 13.32557964324951 2.320319890975952 8.930950164794922 5.625629901885986 5.625629901885986 C 8.930950164794922 2.320319890975952 13.32557964324951 0.5 18 0.5 C 22.67441940307617 0.5 27.06904983520508 2.320319890975952 30.37437057495117 5.625629901885986 C 33.67967987060547 8.930950164794922 35.5 13.32557964324951 35.5 18 C 35.5 22.67441940307617 33.67967987060547 27.06904983520508 30.37437057495117 30.37437057495117 C 27.06904983520508 33.67967987060547 22.67441940307617 35.5 18 35.5 Z" stroke="none"/>
      <path d="M 18 1 C 13.45914077758789 1 9.190059661865234 2.768310546875 5.979190826416016 5.979190826416016 C 2.768310546875 9.190059661865234 1 13.45914077758789 1 18 C 1 23.14361953735352 3.316059112548828 28.05043983459473 7.196390151977539 31.1264705657959 C 8.78019905090332 32.38508987426758 10.49284934997559 33.35276031494141 12.28677940368652 34.00260162353516 C 14.11379051208496 34.6644287109375 16.03598976135254 35 18 35 C 22.54085922241211 35 26.80994033813477 33.231689453125 30.02080917358398 30.02080917358398 C 33.231689453125 26.80994033813477 35 22.54085922241211 35 18 C 35 13.45914077758789 33.231689453125 9.190059661865234 30.02080917358398 5.979190826416016 C 26.80994033813477 2.768310546875 22.54085922241211 1 18 1 M 18 0 C 27.94112014770508 0 36 8.058879852294922 36 18 C 36 27.94112014770508 27.94112014770508 36 18 36 C 13.77503967285156 36 9.890060424804688 34.54438018798828 6.574239730834961 31.90937042236328 C 2.664478302001953 28.81000900268555 0 23.71617126464844 0 18 C 0 8.058879852294922 8.058879852294922 0 18 0 Z" stroke="none" fill="#fff"/>
    </g>
    <text id="D" transform="translate(80 273)" fill="#fff" font-size="21" font-family="OpenSans-Bold, Open Sans" font-weight="700"><tspan x="-7" y="0">D</tspan></text>
  </g>
</svg>
