<svg xmlns="http://www.w3.org/2000/svg" width="12.274" height="12.274" viewBox="0 0 12.274 12.274">
  <path id="Icon_feather-message-circle" data-name="Icon feather-message-circle" d="M15.774,9.824a5.248,5.248,0,0,1-.564,2.38,5.324,5.324,0,0,1-4.76,2.944,5.248,5.248,0,0,1-2.38-.564L4.5,15.773,5.69,12.2a5.248,5.248,0,0,1-.564-2.38A5.324,5.324,0,0,1,8.07,5.064,5.248,5.248,0,0,1,10.45,4.5h.313a5.311,5.311,0,0,1,5.01,5.01Z" transform="translate(-4 -4)" fill="none" stroke="#f03" stroke-linecap="round" stroke-linejoin="round" stroke-width="1"/>
</svg>
