<svg width="965" height="9" viewBox="0 0 965 9" fill="none" xmlns="http://www.w3.org/2000/svg">
<path d="M0.5 1.5L7.4383 7.5L14.6079 1.5L22.4713 7.5L29.8721 1.5L36.8104 7.5L44.9051 1.5L52.5372 7.5L59.9381 1.5L68.264 7.5L75.2023 1.5L83.0657 7.5L90.004 1.5L97.6362 7.5L105.5 1.5L112.9 7.5L120.764 1.5L128.396 7.5L135.797 1.5L143.66 7.5L150.83 1.5L158.462 7.5L166.094 1.5L174.42 7.5L181.59 1.5L188.528 7.5L195.235 1.5L203.098 7.5L210.73 1.5L219.288 7.5L226.457 1.5L233.627 7.5L240.565 1.5L248.428 7.5L255.598 1.5L264.849 7.5L271.556 1.5L278.726 7.5L286.358 1.5L293.296 7.5L301.853 1.5L309.485 7.5L316.655 1.5L324.056 7.5L332.613 1.5L339.551 7.5L347.877 1.5L354.353 7.5L362.217 1.5L368.692 7.5L376.324 1.5L384.65 7.5L392.282 1.5L399.221 7.5L407.778 1.5L415.41 7.5L423.042 1.5L429.518 7.5L438.307 1.5L444.782 7.5L453.802 1.5L460.972 7.5L468.604 1.5L475.079 7.5L483.405 1.5" stroke="#76767E"/>
<path d="M481.594 2L488.533 8L495.702 2L503.566 8L510.967 2L517.905 8L526 2L533.632 8L541.033 2L549.359 8L556.297 2L564.16 8L571.099 2L578.731 8L586.594 2L593.995 8L601.858 2L609.49 8L616.891 2L624.755 8L631.924 2L639.556 8L647.188 2L655.514 8L662.684 2L669.622 8L676.329 2L684.193 8L691.825 2L700.382 8L707.552 2L714.721 8L721.66 2L729.523 8L736.693 2L745.944 8L752.651 2L759.82 8L767.452 2L774.391 8L782.948 2L790.58 8L797.75 2L805.15 8L813.708 2L820.646 8L828.972 2L835.448 8L843.311 2L849.787 8L857.419 2L865.745 8L873.377 2L880.315 8L888.872 2L896.505 8L904.137 2L910.612 8L919.401 2L925.877 8L934.897 2L942.066 8L949.698 2L956.174 8L964.5 2" stroke="#76767E"/>
</svg>
