<svg id="Component_69_12" data-name="Component 69 – 12" xmlns="http://www.w3.org/2000/svg" width="22" height="22" viewBox="0 0 22 22">
  <g id="Ellipse_33" data-name="Ellipse 33" fill="#fff" stroke="#d1d1d1" stroke-width="1">
    <circle cx="11" cy="11" r="11" stroke="none"/>
    <circle cx="11" cy="11" r="10.5" fill="none"/>
  </g>
  <g id="icon_setting" transform="translate(5 5)">
    <path id="Path_108" data-name="Path 108" d="M9.975,3.9,10.8,2.325,9.75,1.275,8.175,2.1a2.687,2.687,0,0,0-.825-.3L6.75,0H5.25l-.6,1.725a3.134,3.134,0,0,0-.75.3L2.325,1.2,1.2,2.325,2.025,3.9a3.134,3.134,0,0,0-.3.75L0,5.25v1.5l1.725.6c.075.3.225.525.3.825L1.2,9.75,2.25,10.8l1.575-.825a2.687,2.687,0,0,0,.825.3L5.25,12h1.5l.6-1.725c.3-.075.525-.225.825-.3L9.75,10.8,10.8,9.75,9.975,8.175a2.687,2.687,0,0,0,.3-.825L12,6.75V5.25l-1.725-.6A3.134,3.134,0,0,0,9.975,3.9ZM6,8.25A2.21,2.21,0,0,1,3.75,6,2.21,2.21,0,0,1,6,3.75,2.21,2.21,0,0,1,8.25,6,2.21,2.21,0,0,1,6,8.25Z" fill="#a5a7a9"/>
  </g>
</svg>
