<svg xmlns="http://www.w3.org/2000/svg" width="10" height="12.308" viewBox="0 0 10 12.308">
  <path id="Icon_metro-bin" data-name="Icon metro-bin" d="M5.268,5.774v7.692a.771.771,0,0,0,.769.769H12.96a.771.771,0,0,0,.769-.769V5.774H5.268ZM7.576,12.7H6.806V7.313h.769Zm1.538,0H8.345V7.313h.769Zm1.538,0H9.883V7.313h.769Zm1.538,0h-.769V7.313h.769Zm1.731-9.231h-2.5V2.5a.579.579,0,0,0-.577-.577H8.153a.579.579,0,0,0-.577.577v.962h-2.5a.579.579,0,0,0-.577.577V5h10V4.043A.579.579,0,0,0,13.922,3.466Zm-3.269,0H8.345v-.76h2.308v.76Z" transform="translate(-4.499 -1.928)" fill="#43425d"/>
</svg>
