<svg xmlns="http://www.w3.org/2000/svg" width="32" height="32" viewBox="0 0 32 32">
  <path id="Icon_feather-message-circle" data-name="Icon feather-message-circle" d="M33.5,18.194a13.5,13.5,0,0,1-1.45,6.122,13.694,13.694,0,0,1-12.244,7.572,13.5,13.5,0,0,1-6.122-1.45L4.5,33.5l3.061-9.183a13.5,13.5,0,0,1-1.45-6.122A13.694,13.694,0,0,1,13.683,5.95,13.5,13.5,0,0,1,19.806,4.5h.806A13.662,13.662,0,0,1,33.5,17.389Z" transform="translate(-3 -3)" fill="none" stroke="#3b86ff" stroke-linecap="round" stroke-linejoin="round" stroke-width="3"/>
</svg>
