<svg xmlns="http://www.w3.org/2000/svg" width="16.813" height="16.583" viewBox="0 0 16.813 16.583">
  <path id="Path_425" data-name="Path 425" d="M16.485-11.859a.953.953,0,0,0-.739-.328,1.029,1.029,0,0,0-.755.312,1.01,1.01,0,0,0-.312.739v2.5q-.066-.066-.361-.443t-.394-.493q-.1-.115-.41-.46a5.086,5.086,0,0,0-.493-.493q-.181-.148-.542-.427a3.587,3.587,0,0,0-.64-.41q-.279-.131-.706-.328a3.761,3.761,0,0,0-.837-.279q-.41-.082-.919-.148a8.341,8.341,0,0,0-1.067-.066A8.007,8.007,0,0,0,2.43-9.757,7.988,7.988,0,0,0,0-3.9,7.988,7.988,0,0,0,2.43,1.966,8.007,8.007,0,0,0,8.308,4.4a8.064,8.064,0,0,0,4.86-1.576,8.2,8.2,0,0,0,3.021-4.138,1.069,1.069,0,0,0-.066-.821,1.056,1.056,0,0,0-.624-.542,1.021,1.021,0,0,0-.837.066,1.046,1.046,0,0,0-.542.64,6.015,6.015,0,0,1-2.233,3.038A5.959,5.959,0,0,1,8.308,2.229,5.923,5.923,0,0,1,3.957.439,5.9,5.9,0,0,1,2.167-3.9,5.9,5.9,0,0,1,3.957-8.23a5.923,5.923,0,0,1,4.351-1.79,4.4,4.4,0,0,1,2.709.821A9.6,9.6,0,0,1,13.1-6.966H10.41a1.01,1.01,0,0,0-.739.312,1.029,1.029,0,0,0-.312.755,1.029,1.029,0,0,0,.312.755,1.01,1.01,0,0,0,.739.312h5.353a1.01,1.01,0,0,0,.739-.312,1.01,1.01,0,0,0,.312-.739v-5.254A.935.935,0,0,0,16.485-11.859Z" transform="translate(0 12.188)" fill="#fff"/>
</svg>
