<svg id="Group_97" data-name="Group 97" xmlns="http://www.w3.org/2000/svg" width="14.617" height="14.617" viewBox="0 0 14.617 14.617">
  <path id="Path_424" data-name="Path 424" d="M7.308,0A7.308,7.308,0,1,1,0,7.308,7.308,7.308,0,0,1,7.308,0Z" transform="translate(0 0)" fill="#4ad991"/>
  <path id="Path_389" data-name="Path 389" d="M-3.511-8.708-3.5-8.7l.017.017.009.009a.076.076,0,0,1,.034.009l.017.009a.186.186,0,0,1,.069.034h.069a.11.11,0,0,0,.086,0h.034a.381.381,0,0,0,.12-.051l.017-.017a.6.6,0,0,0,.06-.043.1.1,0,0,0,.017-.026l.009-.017L.326-14.018a.376.376,0,0,0,.051-.291.375.375,0,0,0-.163-.24A.352.352,0,0,0-.068-14.6a.386.386,0,0,0-.24.154L-3.339-9.6-5-11.226a.409.409,0,0,0-.274-.1.35.35,0,0,0-.265.12.371.371,0,0,0-.1.283.36.36,0,0,0,.128.265Z" transform="translate(10.202 18.698)" fill="#fff" stroke="#fff" stroke-width="1"/>
</svg>
