<svg xmlns="http://www.w3.org/2000/svg" width="16.167" height="16.153" viewBox="0 0 16.167 16.153">
  <path id="Path_428" data-name="Path 428" d="M8.083,16.153A7.763,7.763,0,0,1,2.373,13.78,7.829,7.829,0,0,1,0,8.083,7.785,7.785,0,0,1,2.373,2.373,7.837,7.837,0,0,1,8.083,0a7.763,7.763,0,0,1,5.711,2.373,7.837,7.837,0,0,1,2.373,5.711,7.763,7.763,0,0,1-2.373,5.711A7.846,7.846,0,0,1,8.083,16.153Zm0-14.008a5.655,5.655,0,0,0-4.2,1.729A5.646,5.646,0,0,0,2.145,8.083a5.655,5.655,0,0,0,1.729,4.2,5.676,5.676,0,0,0,4.2,1.729,5.676,5.676,0,0,0,4.2-1.729,5.676,5.676,0,0,0,1.729-4.2,5.676,5.676,0,0,0-1.729-4.2A5.587,5.587,0,0,0,8.083,2.145Zm-.04,6.971a1.063,1.063,0,0,1-.764-.308,1.041,1.041,0,0,1-.308-.764V4.022a1.072,1.072,0,1,1,2.145,0V6.971h1.944a1.081,1.081,0,0,1,.764,1.837,1.041,1.041,0,0,1-.764.308Z" transform="translate(0 0)" fill="#fff"/>
</svg>
